<?xml version="1.0" standalone="no"?><svg xmlns="http://www.w3.org/2000/svg" viewBox="0 0 1440 320"><path fill="#ffffff" fill-opacity="1" d="M0,224L40,234.7C80,245,160,267,240,250.7C320,235,400,181,480,176C560,171,640,213,720,213.3C800,213,880,171,960,181.3C1040,192,1120,256,1200,266.7C1280,277,1360,235,1400,213.3L1440,192L1440,320L1400,320C1360,320,1280,320,1200,320C1120,320,1040,320,960,320C880,320,800,320,720,320C640,320,560,320,480,320C400,320,320,320,240,320C160,320,80,320,40,320L0,320Z"></path></svg>